<?xml version="1.0" encoding="utf-8"?>
<svg xmlns="http://www.w3.org/2000/svg" viewBox="0 0 500 500" xmlns:bx="https://boxy-svg.com" width="500px" height="500px"><defs><bx:export><bx:file format="svg" href="#object-0"/><bx:file format="svg" path="Untitled 2.svg"/></bx:export></defs><circle cx="249.444" cy="249.763" r="242.709" style="stroke-width: 1px; fill: rgb(0, 141, 251);" id="object-0"/><path d="M 248.558 129.099 C 186.977 129.099 190.822 155.787 190.822 155.787 L 190.865 183.471 L 249.644 183.471 L 249.644 191.767 L 167.541 191.767 C 167.541 191.767 128.146 187.312 128.146 249.458 C 128.146 311.605 162.566 309.376 162.566 309.376 L 183.088 309.376 L 183.088 280.555 C 183.088 280.555 182.002 246.139 216.934 246.139 L 275.244 246.139 C 275.244 246.139 308.006 246.661 308.006 214.473 L 308.006 161.286 C 308.006 161.286 312.927 129.099 248.558 129.099 Z M 216.179 147.729 C 222.012 147.729 226.753 152.469 226.753 158.299 C 226.753 164.131 222.012 168.871 216.179 168.871 C 210.345 168.871 205.606 164.131 205.606 158.299 C 205.606 152.469 210.302 147.729 216.179 147.729 Z M 250.312 370.432 C 311.887 370.432 308.049 343.744 308.049 343.744 L 308.006 316.061 L 249.218 316.061 L 249.218 307.764 L 331.324 307.764 C 331.324 307.764 370.719 312.221 370.719 250.073 C 370.719 187.927 336.301 190.155 336.301 190.155 L 315.775 190.155 L 315.775 218.977 C 315.775 218.977 316.869 253.393 281.928 253.393 L 223.618 253.393 C 223.618 253.393 190.865 252.871 190.865 285.058 L 190.865 338.245 C 190.865 338.245 185.987 370.432 250.312 370.432 Z M 282.736 351.803 C 276.902 351.803 272.163 347.063 272.163 341.232 C 272.163 335.4 276.902 330.661 282.736 330.661 C 288.57 330.661 293.309 335.4 293.309 341.232 C 293.309 347.111 288.57 351.803 282.736 351.803 Z" style="fill: rgb(255, 255, 255); stroke-width: 1px;"/></svg>